<svg width="24" height="24" viewBox="0 0 24 24" fill="none" xmlns="http://www.w3.org/2000/svg">
<path d="M9.60938 2.99997C9.375 2.98533 9.13477 3.02634 8.90625 3.11716C8.47266 3.29294 8.17676 3.67673 8.03906 4.05466C7.90137 4.43259 7.86328 4.81931 7.875 5.22654C7.89551 6.04099 8.10059 6.94919 8.34375 7.8281C8.54297 8.5488 8.77148 9.22263 8.97656 9.79685C8.85352 9.77341 8.72754 9.76755 8.60156 9.77341C8.33203 9.78806 8.06836 9.87595 7.82812 10.0312C7.24219 10.4092 6.8877 11.0097 6.82031 11.5781C6.75879 12.0879 6.87891 12.5508 7.03125 12.9609C6.62695 13.0019 6.23145 13.1367 5.92969 13.4297C5.44629 13.9013 5.25 14.5898 5.25 15.3984C5.25 18.0615 6.66797 19.623 8.17969 20.3203C9.69141 21.0175 11.2793 21 11.8828 21C12.5391 21 14.0537 20.9443 15.4453 19.9922C16.8369 19.04 18 17.1562 18 13.9922C18 13.7197 18.2051 12.498 17.4375 11.4609C17.2734 11.2383 17.0508 11.039 16.8047 10.8515C16.9541 10.3623 17.3115 9.18161 17.6016 7.71091C17.7803 6.80271 17.9209 5.87986 17.9062 5.08591C17.8975 4.68747 17.8623 4.32126 17.7188 3.96091C17.5752 3.60056 17.2295 3.19626 16.7578 3.09372C16.2803 2.98826 15.7881 3.08494 15.3984 3.30466C15.0088 3.52439 14.7217 3.8408 14.4609 4.19529C13.9424 4.9072 13.5586 5.80369 13.2656 6.7031C13.166 7.01072 13.0898 7.3154 13.0078 7.61716C12.8789 7.25388 12.7412 6.8906 12.5859 6.5156C12.2109 5.6074 11.7715 4.71384 11.2266 4.03122C10.9541 3.68845 10.6553 3.38669 10.2656 3.18747C10.0693 3.08787 9.84375 3.01462 9.60938 2.99997ZM9.49219 4.47654C9.50977 4.47947 9.53613 4.49705 9.58594 4.52341C9.68555 4.57322 9.86426 4.73142 10.0547 4.96872C10.4326 5.44333 10.8545 6.23728 11.2031 7.0781C11.6484 8.14743 11.9502 9.07615 12.1406 9.74997C12.123 9.74997 12.1113 9.74997 12.0938 9.74997C11.5693 9.74997 11.0889 9.96677 10.7578 10.289C10.585 9.86716 10.1455 8.77439 9.77344 7.42966C9.54785 6.61228 9.38965 5.78904 9.375 5.2031C9.36621 4.91013 9.40723 4.67576 9.44531 4.57029C9.46289 4.51755 9.47168 4.50583 9.46875 4.49997C9.47754 4.49705 9.4834 4.47654 9.49219 4.47654ZM16.2422 4.59372C16.2773 4.59372 16.3066 4.59372 16.3359 4.59372C16.3652 4.69919 16.4004 4.86033 16.4062 5.10935C16.418 5.69822 16.292 6.55076 16.125 7.40622C15.8906 8.59568 15.624 9.55661 15.4453 10.1718C15.0322 10.0429 14.5576 9.93747 14.0156 9.86716C14.1299 9.24314 14.3291 8.29685 14.6953 7.17185C14.9619 6.35154 15.3047 5.56638 15.6562 5.08591C15.832 4.84568 15.999 4.68747 16.125 4.61716C16.166 4.59372 16.207 4.59372 16.2422 4.59372ZM12.0938 11.25C14.8594 11.25 15.876 11.8828 16.2422 12.375C16.6084 12.8672 16.5 13.3769 16.5 13.9922C16.5 16.8076 15.5918 18.0732 14.6016 18.75C13.6113 19.4267 12.4277 19.5 11.8828 19.5C11.2852 19.5 9.94043 19.4824 8.8125 18.9609C7.68457 18.4394 6.75 17.5781 6.75 15.3984C6.75 14.8359 6.90234 14.5664 6.98438 14.4843C7.06641 14.4023 7.14844 14.3701 7.42969 14.4375C7.88379 14.5459 8.68066 15.0937 9.42188 16.0781C9.59473 16.3066 9.75293 16.5527 9.91406 16.8281C9.86719 16.8838 9.72656 16.9687 9.63281 16.9687C9.51855 16.9687 9.41016 16.9336 9.21094 16.7578C9.01172 16.582 8.76855 16.2451 8.50781 15.8437L7.24219 16.664C7.53516 17.1181 7.83105 17.5254 8.20312 17.8593C8.5752 18.1933 9.07617 18.4687 9.63281 18.4687C10.207 18.4687 10.7139 18.2021 11.0625 17.789C11.1533 17.6836 11.168 17.5283 11.2266 17.3906C11.335 17.6982 11.4609 17.9795 11.6016 18.1875C11.918 18.6533 12.3047 18.8906 12.3047 18.8906L13.125 17.6484C13.125 17.6484 13.0137 17.5957 12.8438 17.3437C12.6738 17.0918 12.4922 16.6816 12.4922 16.0312C12.4922 15.7968 12.5273 15.6064 12.6094 15.4453C12.7441 15.1816 12.9814 15 13.2422 14.8359C13.6611 14.5722 14.0859 14.4843 14.0859 14.4843C14.4199 14.4111 14.6631 14.1181 14.6748 13.7754C14.6865 13.4326 14.4609 13.1279 14.1328 13.0312C14.1328 13.0312 12.9434 12.6767 12 12.3984C11.9414 12.3808 11.8828 12.3457 11.8359 12.3047C11.8184 12.29 11.8037 12.2754 11.7891 12.2578C11.7568 12.2051 11.7305 12.1465 11.6953 12.0937C11.6543 11.9853 11.6367 11.8535 11.6484 11.7187C11.6631 11.5576 11.7246 11.4375 11.7891 11.3672C11.8535 11.2968 11.9062 11.25 12.0938 11.25ZM8.625 11.2734C8.65723 11.2529 8.66016 11.2529 8.83594 11.3203C9.01172 11.3877 9.29297 11.5693 9.58594 11.8593C10.1719 12.4394 10.8018 13.4092 11.2031 14.4375C11.2969 14.6777 11.2764 14.7363 11.25 14.789C11.2236 14.8418 11.1504 14.915 11.0156 14.9765C10.8809 15.0381 10.6875 15.0732 10.5703 15.0703C10.4531 15.0674 10.4707 14.9707 10.6172 15.164L10.5703 15.1875C10.1221 14.5693 9.66211 14.0654 9.16406 13.6875C9.16406 13.6875 8.7041 13.1396 8.46094 12.539C8.33789 12.2373 8.29688 11.9355 8.32031 11.7422C8.34375 11.5488 8.37012 11.4375 8.625 11.2734Z" fill="white"/>
</svg>
