<svg width="24" height="24" viewBox="0 0 24 24" fill="none" xmlns="http://www.w3.org/2000/svg">
<path d="M22.4565 5.22001C22.446 5.05247 22.3795 4.89333 22.2677 4.76806C22.1559 4.64279 22.0054 4.55864 21.8401 4.52907C17.7855 3.80157 16.0928 3.27563 12.309 1.56657C12.212 1.52269 12.1067 1.5 12.0001 1.5C11.8936 1.5 11.7883 1.52269 11.6912 1.56657C7.90749 3.27563 6.21483 3.80157 2.16014 4.52907C1.99489 4.55864 1.84434 4.64279 1.73259 4.76806C1.62083 4.89333 1.55433 5.05247 1.54374 5.22001C1.36327 8.08454 1.74811 10.7536 2.68889 13.1531C3.45929 15.1104 4.59943 16.901 6.04702 18.427C8.55342 21.0863 11.2145 22.2413 11.7222 22.4456C11.9026 22.5186 12.1043 22.5186 12.2847 22.4456C12.7923 22.2413 15.4534 21.0863 17.9598 18.427C19.4051 16.9004 20.543 15.1099 21.3114 13.1531C22.2522 10.7536 22.637 8.08454 22.4565 5.22001ZM16.3159 8.74079L11.1222 14.7408C11.0554 14.8182 10.9735 14.8811 10.8815 14.9256C10.7896 14.9702 10.6894 14.9955 10.5873 15H10.5564C10.3601 15.0001 10.1716 14.9231 10.0314 14.7858L7.72514 12.5264C7.65478 12.4575 7.59869 12.3753 7.56007 12.2847C7.52145 12.1941 7.50106 12.0968 7.50006 11.9983C7.49803 11.7993 7.57512 11.6077 7.71436 11.4656C7.8536 11.3235 8.04358 11.2426 8.24252 11.2405C8.44145 11.2385 8.63304 11.3156 8.77514 11.4549L10.5095 13.1559L15.183 7.75923C15.3131 7.6088 15.4977 7.51624 15.6961 7.50191C15.8945 7.48758 16.0905 7.55266 16.2409 7.68282C16.3914 7.81298 16.4839 7.99757 16.4982 8.19598C16.5126 8.39439 16.4475 8.59036 16.3173 8.74079H16.3159Z" fill="#0097A7"/>
</svg>
