<svg width="23" height="16" viewBox="0 0 23 16" fill="none" xmlns="http://www.w3.org/2000/svg">
<rect width="22.4" height="16" rx="2" fill="white"/>
<mask id="mask0" mask-type="alpha" maskUnits="userSpaceOnUse" x="0" y="0" width="23" height="16">
<rect width="22.4" height="16" rx="2" fill="white"/>
</mask>
<g mask="url(#mask0)">
<rect width="22.4" height="16" fill="#F1361D"/>
<path fill-rule="evenodd" clip-rule="evenodd" d="M8.05811 2.48058L8.83286 2.61267L9.41393 3.14186L9.54601 2.36711L10.0752 1.78604L9.30046 1.65395L8.71939 1.12476L8.5873 1.89951L8.05811 2.48058ZM10.1333 5.1904L10.8047 4.7818L11.5904 4.79997L11.1818 4.1286L11.2 3.34288L10.5286 3.75148L9.74289 3.7333L10.1515 4.40467L10.1333 5.1904ZM9.22264 9.57667L8.56594 10.0084L8.55668 9.22257L8.1249 8.56587L8.91078 8.55661L9.56748 8.12483L9.57674 8.91071L10.0085 9.56741L9.22264 9.57667ZM9.79292 7.54512L10.5741 7.45854L11.2785 7.80707L11.1919 7.02592L11.5404 6.32149L10.7593 6.40808L10.0549 6.05955L10.1415 6.8407L9.79292 7.54512Z" fill="#FFDC42"/>
<path fill-rule="evenodd" clip-rule="evenodd" d="M5.3333 6.5813L3.45239 7.92216L4.14638 5.71895L2.28992 4.34445L4.59974 4.32365L5.3333 2.1333L6.06686 4.32365L8.37668 4.34445L6.52022 5.71895L7.21421 7.92216L5.3333 6.5813Z" fill="#FFDC42"/>
</g>
</svg>
