<svg width="24" height="24" viewBox="0 0 24 24" fill="none" xmlns="http://www.w3.org/2000/svg">
<rect width="24" height="24" rx="8" fill="#388E3C"/>
<path d="M9.92593 18C10.1238 18 10.3216 17.99 10.5185 17.9699V16.1699C10.3219 16.1943 10.1238 16.2043 9.92593 16.2C8.82581 16.2 7.77069 15.7575 6.99277 14.9699C6.21484 14.1822 5.77778 13.1139 5.77778 12C5.77778 10.8861 6.21484 9.81782 6.99277 9.03014C7.77069 8.24249 8.82581 7.8 9.92593 7.8C10.1238 7.79568 10.3219 7.80575 10.5185 7.83007V6.03007C10.3216 6.01003 10.1238 6 9.92593 6C8.35431 6 6.84693 6.63215 5.73568 7.75737C4.62428 8.88259 4 10.4087 4 12C4 13.5913 4.62428 15.1174 5.73568 16.2426C6.84693 17.3678 8.35431 18 9.92593 18Z" fill="white"/>
<path d="M18.4074 18C18.6053 18 18.8031 17.99 19 17.9699V16.1699C18.8034 16.1943 18.6053 16.2043 18.4074 16.2C17.4617 16.2001 16.5441 15.8729 15.8071 15.2727C15.0702 14.6725 14.558 13.8354 14.3553 12.9H17.8148V11.1H14.3553C14.558 10.1646 15.0702 9.32747 15.8071 8.72728C16.5441 8.1271 17.4617 7.79993 18.4074 7.8C18.6053 7.79568 18.8034 7.80575 19 7.83007V6.03007C18.8031 6.01003 18.6053 6 18.4074 6C16.8358 6 15.3284 6.63215 14.2172 7.75737C13.1058 8.88259 12.4815 10.4087 12.4815 12C12.4815 13.5913 13.1058 15.1174 14.2172 16.2426C15.3284 17.3678 16.8358 18 18.4074 18Z" fill="white"/>
</svg>
