<svg width="24" height="24" viewBox="0 0 24 24" fill="none" xmlns="http://www.w3.org/2000/svg">
<rect width="24" height="24" rx="8" fill="#388E3C"/>
<path d="M3 8.12048H4.64722V15.8795H3V8.12048Z" fill="white"/>
<path d="M9.0889 16C8.03956 16 7.19358 15.8594 6.55096 15.5783V14.1446C6.91701 14.2892 7.30746 14.4056 7.72232 14.494C8.13717 14.5823 8.53983 14.6265 8.93028 14.6265C9.54036 14.6265 9.96742 14.5703 10.2115 14.4578C10.4636 14.3454 10.5897 14.1125 10.5897 13.759C10.5897 13.5261 10.5328 13.3414 10.4189 13.2048C10.305 13.0683 10.1179 12.9518 9.8576 12.8554C9.5973 12.751 9.19058 12.6225 8.63744 12.4699C7.81586 12.245 7.23832 11.9639 6.90481 11.6265C6.5713 11.2892 6.40454 10.8233 6.40454 10.2289C6.40454 9.51406 6.66891 8.96386 7.19765 8.57831C7.72639 8.19277 8.49509 8 9.50376 8C9.95928 8 10.3904 8.03213 10.7971 8.09639C11.212 8.15261 11.5496 8.22892 11.8099 8.3253V9.75904C11.1428 9.51004 10.4474 9.38554 9.72339 9.38554C9.17025 9.38554 8.75539 9.44578 8.47882 9.56626C8.21038 9.68675 8.07617 9.90763 8.07617 10.2289C8.07617 10.4297 8.12497 10.5904 8.22258 10.7108C8.32833 10.8313 8.49916 10.9398 8.73505 11.0361C8.97909 11.1245 9.35327 11.2329 9.8576 11.3614C10.7687 11.6024 11.3991 11.9157 11.7489 12.3012C12.0986 12.6787 12.2735 13.1647 12.2735 13.759C12.2735 14.4578 12.0051 15.008 11.4682 15.4096C10.9313 15.8032 10.1382 16 9.0889 16Z" fill="white"/>
<path d="M17.1809 16C14.6348 16 13.3618 14.6787 13.3618 12.0361C13.3618 10.6386 13.675 9.61847 14.3013 8.9759C14.9358 8.3253 15.8957 8 17.1809 8C18.4661 8 19.4219 8.3253 20.0483 8.9759C20.6828 9.61847 21 10.6386 21 12.0361C21 14.6787 19.727 16 17.1809 16ZM17.1809 14.6145C17.913 14.6145 18.4539 14.4056 18.8037 13.988C19.1535 13.5622 19.3284 12.9116 19.3284 12.0361C19.3284 11.0803 19.1576 10.4016 18.8159 10C18.4743 9.59036 17.9293 9.38554 17.1809 9.38554C16.4325 9.38554 15.8875 9.59036 15.5459 10C15.2042 10.4016 15.0334 11.0803 15.0334 12.0361C15.0334 12.9116 15.2083 13.5622 15.5581 13.988C15.9079 14.4056 16.4488 14.6145 17.1809 14.6145Z" fill="white"/>
</svg>
