<svg width="24" height="24" viewBox="0 0 24 24" fill="none" xmlns="http://www.w3.org/2000/svg">
<rect width="24" height="24" rx="8" fill="#388E3C"/>
<path d="M20.4601 15.0797L19.976 15.9763L19.9693 15.9981L15.4666 16V15.0783L20.4601 15.0797Z" fill="white"/>
<path d="M16.6792 8.03742L20.4601 15.0797L21 14.0913L17.6493 8.03731L16.6792 8.03742L15.7093 8.03721L13.9551 11.2053C13.6397 9.36656 12.1808 8.01754 10.4234 8L3.00029 8.00053L3 15.9995H3.83589L3.83609 8.91993L10.39 8.92014L10.4165 8.9194C11.9435 8.93524 13.1772 10.3035 13.1772 11.9885C13.1772 13.6764 11.94 15.046 10.4098 15.0578L10.39 15.0572H8.50113L8.50133 15.0498V11.2764H7.63705L7.63349 15.0498V15.9906H10.39L10.4234 15.9904C11.6581 15.9781 12.7323 15.1978 13.3793 14.15L13.6711 13.6052L16.6792 8.03742Z" fill="white"/>
<path d="M4.14495 9.28448L10.4031 9.28363L10.4164 9.27714C11.7672 9.29107 12.8581 10.5013 12.8581 11.9922C12.8581 13.4851 11.7637 14.6967 10.4095 14.7069L10.388 14.7058L8.85695 14.7041V11.2766H9.72122V13.7719L9.79338 13.7697H10.3896L10.4228 13.7693C11.2975 13.7498 12.001 12.963 12.001 11.9954C12.001 11.0225 11.2903 10.2325 10.4094 10.2208H5.00162L4.98074 10.2213V11.2573L4.98142 11.2759L7.28888 11.2768L7.29119 12.2286L4.15428 12.228L4.14476 12.2274L4.14495 9.28448Z" fill="white"/>
<path d="M12.7992 16L16.676 8.86273L19.8738 14.7095H15.4664V13.7975H18.3276L16.676 10.753L13.9694 16H12.7992Z" fill="white"/>
<path d="M5.0048 13.5628H7.29494V12.611H4.17766L4.14476 12.6108V15.9996H4.98065V13.577L5.0048 13.5628Z" fill="white"/>
</svg>
