<svg id="Layer_1" data-name="Layer 1" xmlns="http://www.w3.org/2000/svg" viewBox="0 0 470.85 48.37"><defs><style>.cls-1{fill:#fff;}</style></defs><g id="g3838"><path id="path3840" class="cls-1" d="M90,61.56H89.7L79.59,78.36H101.4ZM74.48,85.71l-7.55,9.75H48L83.85,48h13.9L132.6,95.46H113.47l-7.08-9.75Z" transform="translate(-48.04 -48.01)"/></g><g id="g3842"><path id="path3844" class="cls-1" d="M190.73,87.61h25.34v7.85H172.82V49.24h17.91Z" transform="translate(-48.04 -48.01)"/></g><g id="g3846"><path id="path3848" class="cls-1" d="M289.39,95.46H271.48V57.09H253V49.24h55v7.85H289.39Z" transform="translate(-48.04 -48.01)"/></g><g id="g3850"><path id="path3852" class="cls-1" d="M370.16,57.09V67.26h28.51v7.85H370.16v12.5h29.6v7.84H352.25V49.23h47.51v7.86Z" transform="translate(-48.04 -48.01)"/></g><g id="g3854"><path id="path3856" class="cls-1" d="M439.45,48h12.92l48.36,32.31H501V49.23h17.91V96.38H506L457.6,64.07h-.24V95.45H439.45Z" transform="translate(-48.04 -48.01)"/></g></svg>