
<svg xmlns="http://www.w3.org/2000/svg" viewBox="0 0 182 44.48"><g id="Layer_2" data-name="Layer 2"><g id="ALTEN_SWEDEN" data-name="ALTEN SWEDEN"><path d="M10.51,14.13,7.68,17.78H.61L14,0h5.21L32.29,17.78H25.13l-2.65-3.65Zm5.8-9h-.09l-3.79,6.29h8.18Z"/><path d="M55.2,14.84h9.5v2.94H48.49V.46H55.2Z"/><path d="M92.18,17.78H85.47V3.4H78.53V.46H99.12V3.4H92.18Z"/><path d="M122.44,3.4V7.21h10.69v2.94H122.44v4.69h11.1v2.94H115.73V.46h17.81V3.4Z"/><path d="M152.16,0H157l18.12,12.11h.09V.46h6.72V18.12h-4.84L159,6h-.09V17.78h-6.71Z"/><path d="M10,31.76a5.29,5.29,0,0,0-4.15-1.63A5,5,0,0,0,2.65,31a2.76,2.76,0,0,0-1,2.26,2.58,2.58,0,0,0,.25,1.21,2.09,2.09,0,0,0,.8.82,5.61,5.61,0,0,0,1.38.58c.56.16,1.23.32,2,.48a21.47,21.47,0,0,1,2.21.56,6.16,6.16,0,0,1,1.67.78A3.17,3.17,0,0,1,11,38.81a3.42,3.42,0,0,1,.37,1.68A3.72,3.72,0,0,1,11,42.23a3.47,3.47,0,0,1-1.11,1.24,5,5,0,0,1-1.7.76,8.81,8.81,0,0,1-2.2.25,8.5,8.5,0,0,1-6-2.25l.57-.87a7.05,7.05,0,0,0,2.34,1.58A7.94,7.94,0,0,0,6,43.53a5.62,5.62,0,0,0,3.1-.73,2.43,2.43,0,0,0,1.11-2.19,2.5,2.5,0,0,0-.29-1.26,2.54,2.54,0,0,0-.88-.91,6.62,6.62,0,0,0-1.48-.66c-.59-.18-1.28-.36-2.07-.53S4,36.9,3.37,36.71A5.65,5.65,0,0,1,1.81,36a2.77,2.77,0,0,1-1-1.06,3.36,3.36,0,0,1-.32-1.55,4,4,0,0,1,.39-1.81A4,4,0,0,1,2,30.24a5.06,5.06,0,0,1,1.68-.82,8.16,8.16,0,0,1,2.17-.27,7.38,7.38,0,0,1,2.62.43,6.41,6.41,0,0,1,2.08,1.33Z"/><path d="M38,29.36h1.07l2.25,5.49,2.26-5.49h1.06L42,35.72l3.17,7.36L51,29.25h1.19L45.67,44.36h-1l-3.32-7.77L38,44.36H37L30.57,29.25h1.17l5.8,13.83,3.13-7.36Z"/><path d="M82.92,43.38v1H72.86V29.25h9.87v1H73.94v5.94h7.68v.93H73.94v6.28Z"/><path d="M104.34,44.36V29.25h5a7.68,7.68,0,0,1,3.14.6,6.31,6.31,0,0,1,2.24,1.62,6.67,6.67,0,0,1,1.34,2.39,9.84,9.84,0,0,1,0,6,6.58,6.58,0,0,1-1.44,2.38,6.37,6.37,0,0,1-2.26,1.53,7.67,7.67,0,0,1-3,.55Zm11.1-7.58a8.13,8.13,0,0,0-.4-2.62,6,6,0,0,0-1.18-2.08,5.46,5.46,0,0,0-1.9-1.36,6.62,6.62,0,0,0-2.6-.49h-3.94V43.38h3.94a6.56,6.56,0,0,0,2.63-.5,5.23,5.23,0,0,0,1.9-1.39,6.14,6.14,0,0,0,1.16-2.1A8.4,8.4,0,0,0,115.44,36.78Z"/><path d="M148.08,43.38v1H138V29.25h9.87v1H139.1v5.94h7.68v.93H139.1v6.28Z"/><path d="M170.58,31.3V44.36H169.5V29.25h.83l10.59,13.3V29.28H182V44.36h-1Z"/></g></g></svg>