<svg id="Layer_1" data-name="Layer 1" xmlns="http://www.w3.org/2000/svg" viewBox="0 0 500 500"><defs><style>.cls-1{fill:#fdfefe;}</style></defs><g id="Bunny"><path class="cls-1" d="M429,260.39l-85.61-31.16-25.88-9.42h0q3.17,14.67,6.9,29.52c.12.48.25.95.37,1.43q1.08,4.24,2.22,8.5v0c.45,1.5.91,3,1.39,4.46.16.5.33,1,.49,1.49.33,1,.67,2,1,3,.2.57.39,1.14.59,1.7.35,1,.71,1.94,1.07,2.9.42,1.14.86,2.27,1.3,3.4l.66,1.67c.38.94.77,1.87,1.16,2.8.12.29.24.59.37.88,18.15,42.7,47.52,72.66,69.73,80.76,0,0,1.79-43.58,31.14-60Z"/><path class="cls-1" d="M337.17,425.31c15.26-23.8,30.47-48,44.82-72.64-24.06-15.17-53-51.13-66.88-97.74-1.26-4.7-2.45-9.38-3.61-14-14.87,55.32-23.12,113.25-30.34,170-5.83-.36-12.07-.55-18.77-.55a239.39,239.39,0,0,0-39.19,2.81c-15-43.21-50.81-145.69-55.33-155.63-5.74-12.63-76.95-126.44-76.95-126.44-25.06,12.69-44.26,112.59-2.07,195.87,27,53.34,55.6,93.55,86.52,107.87C159.28,450.54,152.08,473.07,140,500H384.82C370,467.07,362.54,440.72,337.17,425.31Z"/></g></svg>