<svg viewBox="0 0 161 370" xmlns="http://www.w3.org/2000/svg">
 <defs>
  <style>.cls-1{fill:#ffd21b;}.cls-2{fill:#fdfefe;}.cls-3{fill:#b5daf4;}</style>
 </defs>
 <g>
  <title>background</title>
 </g>
 <g>
  <title>Layer 1</title>
  <g id="Egg">
   <path id="svg_1" d="m162,448.66c-44,0 -84.56,-19.27 -114.16,-54.24c-30.1,-35.58 -46.68,-85.42 -46.68,-140.42c0,-56.4 17.17,-119.35 45.94,-168.37c14.93,-25.43 32,-45.67 50.61,-60.14c20.64,-16.03 42.29,-24.15 64.29,-24.15s43.65,8.12 64.29,24.13c18.65,14.47 35.71,34.71 50.61,60.14c28.77,49 45.94,112 45.94,168.37c0,55 -16.58,104.86 -46.68,140.44c-29.6,34.97 -70.16,54.24 -114.16,54.24zm0,-432.32c-36.13,0 -73.29,28 -102,76.87c-27.44,46.79 -43.84,106.92 -43.84,160.79c0,104.11 61.33,179.68 145.84,179.68s145.84,-75.59 145.84,-179.68c0,-53.85 -16.4,-114 -43.88,-160.77c-28.67,-48.87 -65.83,-76.89 -101.96,-76.89z" class="cls-1"/>
   <path id="svg_2" d="m162,389c-32.49,0 -62.41,-14.21 -84.24,-40c-22.11,-26.13 -34.3,-62.72 -34.3,-103c0,-41.2 12.55,-87.17 33.56,-123c23.48,-40 53.66,-62 85,-62s61.5,22 85,62c21,35.8 33.56,81.77 33.56,123c0,40.3 -12.18,76.89 -34.3,103c-21.87,25.81 -51.79,40 -84.28,40zm0,-313c-25.41,0 -51.67,19.92 -72.05,54.64c-19.71,33.59 -31.49,76.72 -31.49,115.37c0,74.18 43.55,128 103.54,128s103.54,-53.85 103.54,-128c0,-38.65 -11.78,-81.78 -31.49,-115.37c-20.38,-34.74 -46.64,-54.64 -72.05,-54.64z" class="cls-2"/>
   <path id="svg_3" d="m162,335.38c-22.76,0 -43.68,-9.91 -58.9,-27.9c-15,-17.77 -23.33,-42.45 -23.33,-69.49s8.22,-57.14 22,-80.59c16.23,-27.59 37.57,-42.78 60.23,-42.78s44.05,15.19 60.24,42.78c13.77,23.45 22,53.58 22,80.59s-8.29,51.72 -23.33,69.49c-15.23,17.99 -36.15,27.9 -58.91,27.9zm0,-193.76c-26.84,0 -55.23,49.54 -55.23,96.37c0,40.79 23.23,70.39 55.23,70.39s55.23,-29.6 55.23,-70.39c0,-46.83 -28.39,-96.37 -55.23,-96.37z" class="cls-3"/>
   <path id="svg_4" d="m162,269.74c-19.34,0 -33.92,-17.09 -33.92,-39.75c0,-23.47 14.51,-49.73 33.92,-49.73s33.92,26.26 33.92,49.73c0,22.66 -14.58,39.75 -33.92,39.75zm0,-74.48c-8.84,0 -18.92,18.5 -18.92,34.73c0,14.34 8,24.75 18.92,24.75s18.92,-10.41 18.92,-24.75c0,-16.23 -10.08,-34.73 -18.92,-34.73z" class="cls-1"/>
  </g>
 </g>
</svg>