<svg id="Layer_1" data-name="Layer 1" xmlns="http://www.w3.org/2000/svg" viewBox="0 0 500 500"><defs><style>.cls-1{fill:#ffd21b;}</style></defs><path class="cls-1" d="M29.06,306c-.68,0-.35,1.53-.35,1.53-.4.72.91,1,1,1.37s2.15.33,2.15.33,1,.13,2.28.26,5-.39,4.9.07-.14,1,.65,1,7.43-.15,11.48,0,12.78,0,25.43-.78c1,0,2-.62,2.8-.62a74.62,74.62,0,0,0,7.64.23c4-.18,40.17,1.17,44.6,1.17s7.31-.65,8-1,.91-4.43.91-4.43,1.13-3,1.16-3l1.67.09a9.35,9.35,0,0,0,2.52-.51c.65-.26,1.57-2.73,1.57-3.52s.52-3.91.52-3.91.52-3.78,1.17-7.3c.53-2.86.46-14.68.41-19l0-1.53v-.07c14.48,1,21.79-10.66,21.79-10.66a62.41,62.41,0,0,0,10,0c4.43-.49,24-4.08,26-3.69a93.21,93.21,0,0,0,11.47.91c3,0,16.05-.52,18.66-.65s12.13,4.43,27,9.78,41.87,3.52,46,3.13,20.35,1.05,21.26,1.31,7.57-.26,9.26.52,7.7.39,9.39,0,4.44-.13,6.66-.13,21.91,4.3,35.6,3.91S424.51,273,424.51,273s-1,1.63-.23,2.22,3.82,1.17,4.21,1.86,2.64,2.54,3,4.1.49,2.65,1.08,2.94,2.15,6.26,1.56,8.22,1.67,3.71.3,4.59-5.09,2.16-5.38,3.23-.2,3.62.68,3.92,3.36,1.53,3.36,1.53a7.74,7.74,0,0,0,4.95,0,10.75,10.75,0,0,1-.46-4.6c.26-2.81,6.91-5,8.15-6.46s-1.89-19-1.89-19c3.78,3.33,4.11,18.79,4.37,20.35s-5.81,4.24-8,5.09-1.55,4.35-1.55,4.35.78,2.34,2.21,2.61,9.79,1.56,9.79,1.56l.65-.91s.65.65,2.87,0,7-6.78,7.69-8,3.66-12.52,3.66-12.52v-1.57h.65l2.61-11.08v-1.18l.91-.91s.13-.65.91-5.09,1.05-12,0-12.39a42.07,42.07,0,0,0-5.88.54,41.77,41.77,0,0,1-7.76,1.31,8.86,8.86,0,0,1-6.19-1.83s2.74.33,4.69.46a35.73,35.73,0,0,0,6.2-1,2.54,2.54,0,0,0-1-2.35s-1.83-.13-2.48-.13-3.78,1.31-4.56.92a49.25,49.25,0,0,0-5.22-2c-1.7-.52-2.87-.52-3.65-.78s-.39,1.82-.92,2.08-1.3-.52-2.6-1a28.24,28.24,0,0,0-6.13-1.17c-1,0-1.31,2.87-1.31,2.87s-2.87-.53-8.09-.92-21.13-4.43-25-5.35-20.87-6.78-29.22-7.69-18.26.65-24,.65c-1.08,0-2,0-2.79-.05l-2.59-.21c-1.87-.23-3.47-.59-6.62-1-5.47-.79-17.21-5.48-23.21-7.83s-29.74-9.39-35.22-12-11.51-10.73-24.52-15c-12.8-4.2-22.83.49-30.13,4.4s-13.44,4.34-18.92,4.86-15.65-3.65-21.13-5.74-21.39-5.22-32.87-6-32.87,6-32.87,6l-.5.13a1.42,1.42,0,0,0-1.39-.94c-1.11,0-1.3,1.37-2.93,1.57s-2-1.11-2.81-1.37a2.71,2.71,0,0,0-1,0c-1.85-1.28-4.23-2.93-6.24-4.34-1.79-2.11-3.86-4.39-4.73-4.78-1.44-.65-3.39-2.87-8.87-5.74s-9-2.87-21-3c-10.83-.12-12.79,11.68-13.07,14l-.26.62c-6.24,6.07-3.44,15.79-.87,20.74l.11,0a8.32,8.32,0,0,0,1.75-.69l.06,0c.31-.16.63-.35,1-.55l.06,0c.34-.21.68-.43,1-.67l0,0c2.37-1.63,5-3.93,7.54-5.86l.23-.17.9-.65c.11-.09.23-.17.35-.25l.79-.54c.14-.08.27-.18.4-.26l.74-.43.41-.24c.24-.13.47-.23.71-.34s.27-.14.4-.19.47-.17.71-.25l.34-.11a5.22,5.22,0,0,1,1-.18c5.22-.39,15.79,3.35,23.09,1.87a30.18,30.18,0,0,0,12.52-6,21.75,21.75,0,0,1-14,8.6c-9.4,1.57-17.61-3.91-21.92-1.43s-11.35,5.87-14.08,8.35a4.64,4.64,0,0,1-.6.44l-.23.14a4,4,0,0,1-.46.24,2.75,2.75,0,0,1-.3.14c-.23.1-.47.2-.72.29h0c-.33.11-.67.22-1,.31.09.15.19.3.28.43,2.68,3.92,2.41,10.37,3.39,13s1.76,11,1.76,13.58-.39,18,0,20.94,6.46,15.67,6.46,15.67,4.5-.22,6.85,0a6.51,6.51,0,0,0,6.06-3c1.57-2.24,10.37-6,11.55-9.81s3.52-3.81,6.06-4.2,3.33-3.13,4.5-4.7a46,46,0,0,0,3.52-5.87c.79-1.56,3.72-4.3,4.11-5.87s3.52-3.91,4.5-6.26,1-4.5.59-7.63c0-.24,0-.66-.06-1.19-2.43-1.29-9.12-4.4-12-1.54-1.18,1.17-2.84,10.76-5.87,11.05s-4.7-2.74-9.2-1.56S77.18,250,75,248.11s-3.79-4.6-5.36-7.33a10.85,10.85,0,0,0-4.45-4,27.74,27.74,0,0,1-2.92-2.48,18.56,18.56,0,0,0,4.31,2c1.07.35,2.11-.07,2.87.17a2.41,2.41,0,0,1,1.64,1.12c.69.88,1.77,2.33,2.19,3s1.44,3.45,1.8,4.24.6.78,1.09.86.87-.27,1.15-.4.41-.13.76-.3a9.94,9.94,0,0,0,1.56-1.54c.55-.6.5-.37.75-.26s.45.61.56.91a2.68,2.68,0,0,0,.44,1,3.56,3.56,0,0,0,1.46.92,1.82,1.82,0,0,0,1.28-.11,2,2,0,0,0,.64-.41s-.11.78-.13,1.07.3.46.47.52,1.65.09,2,.11.76-.4,1.07-.77a7,7,0,0,1,1.08-1.13c.48-.37.95.13,1.62.51a16.55,16.55,0,0,0,2.86,1.62c.83.24,1.46-.31,2.44-.82s1.05-1.46,1.47-2.35a21.61,21.61,0,0,0,1.2-4.17,12.38,12.38,0,0,1,.72-3c.47-1.27,1.37-1.28,2.28-1.41s10.79,0,11.67,0q0-.72.06-1.47h0s3.07,0,3.29,1.31c.36,2.14-.71,5.24.38,8,0,0,2.56,10.29,4.42,14.4s1.76,20.06,2.28,28.53c0,0-11.77,2.78-18.72,3.85S85.64,292,85.64,292s-8.35.79-11.18.69-13.5,2.05-14.19,2.44a54.19,54.19,0,0,1-7.68,2.5,31.28,31.28,0,0,0-5.18,1.17c-1.18.44-2.44.67-3,1,0,0-8,1.51-10.21,2.3A2.29,2.29,0,0,0,32.61,305Z"/></svg>