<svg  viewBox="0 0 153 299" xmlns="http://www.w3.org/2000/svg">
 <defs>
  <style>.cls-1{fill:#fdfefe;}.cls-2{fill:#b5daf4;}</style>
 </defs>
 <g>
  <title>Layer 1</title>
  <g id="Circles">
   <path id="svg_1" d="m-2,296.2c-81.16,0 -147.2,-66 -147.2,-147.2s66,-147.2 147.2,-147.2s147.2,66 147.2,147.2s-66.04,147.2 -147.2,147.2zm0,-279.4c-72.89,0 -132.2,59.31 -132.2,132.2s59.31,132.2 132.2,132.2s132.2,-59.31 132.2,-132.2s-59.31,-132.2 -132.2,-132.2z" class="cls-1"/>
   <path id="svg_2" d="m-2,272.09a123.09,123.09 0 1 1 123.09,-123.09a123.23,123.23 0 0 1 -123.09,123.09zm0,-206.18a83.09,83.09 0 1 0 83.09,83.09a83.19,83.19 0 0 0 -83.09,-83.09z" class="cls-2"/>
   <path id="svg_3" d="m-2,223.41a74.41,74.41 0 1 1 74.41,-74.41a74.49,74.49 0 0 1 -74.41,74.41zm0,-133.82a59.41,59.41 0 1 0 59.41,59.41a59.48,59.48 0 0 0 -59.41,-59.41z" class="cls-1"/>
  </g>
 </g>
</svg>