<svg viewBox="0 0 366 104" xmlns="http://www.w3.org/2000/svg" stroke="null" style="vector-effect: non-scaling-stroke;">
 <defs stroke="null">
  <style stroke="null" style="vector-effect: non-scaling-stroke;">.cls-1{fill:#83c6c0;}.cls-2{fill:#b5daf4;}.cls-3{fill:#fdfefe;}</style>
 </defs>
 <g stroke="null">
  <title stroke="null">Layer 1</title>
  <g stroke="null" id="Edgy_Waves">
   <polygon stroke="null" id="svg_1" points="641.2880249023438,55.30692721901687 478.2264404296875,18.25068230032275 315.16485595703125,55.30692721901687 152.12356567382812,18.25068230032275 -10.93804931640625,55.30692721901687 -173.99969482421875,18.25068230032275 -330.8226318359375,53.88687638768988 -343.300048828125,39.69666306918225 -173.99969482421875,1.21002197265625 -10.93804931640625,38.27661223785526 152.12356567382812,1.21002197265625 315.16485595703125,38.27661223785526 478.2264404296875,1.21002197265625 641.2880249023438,38.27661223785526 804.349609375,1.21002197265625 973.6500244140625,39.69666306918225 961.1727294921875,53.88687638768988 804.349609375,18.25068230032275 641.2880249023438,55.30692721901687 " class="cls-1"/>
   <polygon stroke="null" id="svg_2" points="641.2880249023438,103.46448808680998 478.2264404296875,66.40824704132683 315.16485595703125,103.46448808680998 152.12356567382812,66.40824704132683 -10.93804931640625,103.46448808680998 -173.99969482421875,66.40824704132683 -330.8226318359375,102.04443725548299 -343.300048828125,87.85422393697536 -173.99969482421875,49.37792818695425 -10.93804931640625,86.43417310564837 152.12356567382812,49.37792818695425 315.16485595703125,86.43417310564837 478.2264404296875,49.37792818695425 641.2880249023438,86.43417310564837 804.349609375,49.37792818695425 973.6500244140625,87.85422393697536 961.1727294921875,102.04443725548299 804.349609375,66.40824704132683 641.2880249023438,103.46448808680998 " class="cls-2"/>
  </g>
 </g>
</svg>