<svg viewBox="0 0 755.35 147" xmlns="http://www.w3.org/2000/svg">
 <defs>
  <style>.cls-1{fill:#b5daf4;}.cls-2{fill:#ffd21b;}.cls-3{fill:#83c6c0;}.cls-4{fill:none;}</style>
 </defs>
 <g>
  <title>Layer 1</title>
  <g stroke="null" id="Waves">
   <path stroke="null" class="cls-1" d="m753.74403,43.499998l-44.39952,-22.26098c-8.85496,-4.437118 -22.19975,-4.437118 -31.05471,0l-25.4736,12.772874c-13.13694,6.591052 -31.49123,6.591052 -44.69053,0l-25.4736,-12.772874c-8.85496,-4.437118 -22.19975,-4.437118 -31.05471,0l-25.46321,12.772874c-13.13694,6.591052 -31.49123,6.591052 -44.62817,0l-25.47359,-12.772874c-8.85496,-4.437118 -22.19976,-4.437118 -31.05472,0l-25.4736,12.772874c-13.14733,6.591052 -31.50162,6.591052 -44.63856,0l-25.4736,-12.772874c-8.85496,-4.437118 -22.19976,-4.437118 -31.05472,0l-25.48399,12.772874c-13.13693,6.591052 -31.49123,6.591052 -44.69052,0l-25.4736,-12.772874c-8.84457,-4.437118 -22.19976,-4.437118 -31.04433,0l-25.48399,12.772874c-13.13693,6.591052 -31.49123,6.591052 -44.62816,0l-25.42164,-12.772874c-8.85496,-4.437118 -22.19975,-4.437118 -31.05471,0l-44.39952,22.26098l-6.78672,-14.539103l44.39951,-22.26098c13.13694,-6.591052 31.49123,-6.591052 44.62817,0l25.43202,12.772874c8.85496,4.437118 22.19976,4.437118 31.05472,0l25.4736,-12.772874c13.13694,-6.591052 31.49123,-6.591052 44.63856,0l25.4736,12.772874c8.85496,4.437118 22.19976,4.437118 31.05472,0l25.47359,-12.772874c13.13694,-6.591052 31.49123,-6.591052 44.62817,0l25.4736,12.772874c8.85496,4.437118 22.21015,4.437118 31.05472,0l25.4736,-12.772874c13.14732,-6.591052 31.50162,-6.591052 44.63855,0l25.4736,12.772874c8.85496,4.437118 22.19976,4.437118 31.05472,0l25.54635,-12.772874c13.13694,-6.591052 31.49123,-6.591052 44.63856,0l25.4736,12.772874c8.85496,4.437118 22.19976,4.437118 31.05472,0l25.4736,-12.772874c13.13693,-6.591052 31.49123,-6.591052 44.62816,0l44.39952,22.26098l-6.76594,14.539103z" id="svg_1"/>
   <path stroke="null" class="cls-2" d="m757.08023,68.37802l-44.38912,-22.26098c-10.97516,-5.49255 -26.87668,-5.49255 -37.85184,0l-25.4736,12.772864c-10.96477,5.503327 -26.86628,5.503327 -37.84144,0l-25.4736,-12.772864c-10.97516,-5.49255 -26.87667,-5.49255 -37.84144,0l-25.4736,12.772864c-10.97516,5.503327 -26.87667,5.503327 -37.85183,0l-25.4736,-12.772864c-10.96477,-5.49255 -26.86628,-5.49255 -37.84144,0l-25.4736,12.772864c-10.97516,5.503327 -26.87667,5.503327 -37.84144,0l-25.43203,-12.772864c-10.97516,-5.49255 -26.87667,-5.49255 -37.85183,0l-25.54635,12.772864c-10.96477,5.503327 -26.86628,5.503327 -37.84145,0l-25.47359,-12.772864c-10.96477,-5.49255 -26.87668,-5.49255 -37.84145,0l-25.47359,12.772864c-10.97517,5.503327 -26.87668,5.503327 -37.84145,0l-25.45281,-12.772864c-10.96477,-5.49255 -26.86628,-5.49255 -37.84144,0l-44.39951,22.26098l0,33.472245l44.39951,-22.26099c10.97516,-5.503318 26.87667,-5.503318 37.84144,0l25.48399,12.772874c10.96477,5.503318 26.86628,5.503318 37.84145,0l25.47359,-12.772874c10.96477,-5.503318 26.87668,-5.503318 37.84145,0l25.47359,12.772874c10.97517,5.503318 26.87668,5.503318 37.84145,0l25.47359,-12.772874c10.97517,-5.503318 26.87668,-5.503318 37.85184,0l25.4736,12.772874c10.96477,5.503318 26.86628,5.503318 37.84144,0l25.4736,-12.772874c10.97516,-5.503318 26.87667,-5.503318 37.84144,0l25.4736,12.772874c10.97516,5.503318 26.87667,5.503318 37.85183,0l25.4736,-12.772874c10.96477,-5.503318 26.86628,-5.503318 37.84144,0l25.4736,12.772874c10.97516,5.503318 26.87668,5.503318 37.84144,0l25.4736,-12.772874c10.97516,-5.503318 26.87668,-5.503318 37.85184,0l44.38912,22.26099l0,-33.472245z" id="svg_2"/>
   <path stroke="null" class="cls-3" d="m753.74403,105.964291l-44.39952,-22.26098c-8.85496,-4.437118 -22.19975,-4.437118 -31.05471,0l-25.4736,12.772864c-13.13694,6.591062 -31.49123,6.591062 -44.69053,0l-25.4736,-12.772864c-8.85496,-4.437118 -22.19975,-4.437118 -31.05471,0l-25.46321,12.729785c-13.13694,6.591062 -31.49123,6.591062 -44.62817,0l-25.47359,-12.772864c-8.85496,-4.437118 -22.19976,-4.437118 -31.05472,0l-25.4736,12.772864c-13.14733,6.591062 -31.50162,6.591062 -44.63856,0l-25.4736,-12.772864c-8.85496,-4.437118 -22.19976,-4.437118 -31.05472,0l-25.48399,12.772864c-13.13693,6.591062 -31.49123,6.591062 -44.69052,0l-25.4736,-12.772864c-8.84457,-4.437118 -22.19976,-4.437118 -31.04433,0l-25.48399,12.772864c-13.13693,6.591062 -31.49123,6.591062 -44.62816,0l-25.42164,-12.772864c-8.85496,-4.437118 -22.19975,-4.437118 -31.05471,0l-44.39952,22.304059l-6.78672,-14.539103l44.39951,-22.26098c13.13694,-6.591062 31.49123,-6.591062 44.62817,0l25.43202,12.729785c8.85496,4.437118 22.19976,4.437118 31.05472,0l25.4736,-12.772864c13.13694,-6.591062 31.49123,-6.591062 44.63856,0l25.4736,12.772864c8.84456,4.437118 22.19976,4.437118 31.05472,0l25.47359,-12.772864c13.13694,-6.591062 31.49123,-6.591062 44.62817,0l25.4736,12.772864c8.85496,4.437118 22.21015,4.437118 31.05472,0l25.4736,-12.772864c13.14732,-6.591062 31.50162,-6.591062 44.63855,0l25.4736,12.772864c8.85496,4.437118 22.19976,4.437118 31.05472,0l25.54635,-12.772864c13.13694,-6.591062 31.49123,-6.591062 44.63856,0l25.4736,12.772864c8.84457,4.437118 22.19976,4.437118 31.05472,0l25.4736,-12.772864c13.13693,-6.591062 31.49123,-6.591062 44.62816,0l44.39952,22.26098l-6.76594,14.582173l0,0.00001z" id="svg_3"/>
   <polygon stroke="null" class="cls-3" points="-5.423255920410156,105.92120361328125 -4.913992404937744,148.44000244140625 757.4959106445312,148.44000244140625 757.4959106445312,98.89935302734375 697.3092651367188,71.9212646484375 629.79541015625,92.14678955078125 568.78759765625,71.9212646484375 506.1585388183594,95.51763916015625 442.71875,71.9212646484375 377.1692199707031,93.83758544921875 315.0181884765625,71.9212646484375 254.8314666748047,98.04855346679688 188.12828063964844,71.9212646484375 126.30985260009766,97.20849609375 63.680763244628906,71.9212646484375 -5.423255920410156,105.92120361328125 " id="svg_4"/>
   <rect stroke="null" class="cls-4" x="1.165997" y="-61.440003" width="752.00641" height="209.869237" id="svg_5"/>
  </g>
 </g>
</svg>